<svg xmlns="http://www.w3.org/2000/svg" width="20" height="20" viewBox="0 0 20 20"><path d="M7.5-9.375a1.25,1.25,0,0,0-1.25-1.25H5.625a2.5,2.5,0,0,0-2.5,2.5V-6.25a2.5,2.5,0,0,0,2.5,2.5H6.25A1.25,1.25,0,0,0,7.5-5ZM14.375-3.75a2.5,2.5,0,0,0,2.5-2.5V-8.125a2.5,2.5,0,0,0-2.5-2.5H13.75a1.25,1.25,0,0,0-1.25,1.25V-5a1.25,1.25,0,0,0,1.25,1.25ZM10-17.5A10.19,10.19,0,0,0,0-7.5v.625a.625.625,0,0,0,.625.625H1.25a.625.625,0,0,0,.625-.625V-7.5A8.134,8.134,0,0,1,10-15.625,8.134,8.134,0,0,1,18.125-7.5h0c0,.095,0,6.473,0,6.473A1.652,1.652,0,0,1,16.473.625H12.5A1.875,1.875,0,0,0,10.625-1.25H9.375a1.875,1.875,0,0,0,0,3.75h7.1A3.527,3.527,0,0,0,20-1.027V-7.5A10.19,10.19,0,0,0,10-17.5Z" transform="translate(0 17.5)" fill="#fff"/></svg>