<svg xmlns="http://www.w3.org/2000/svg" width="25.002" height="12.5" viewBox="0 0 25.002 12.5"><path d="M18.753-13.75H6.249A6.252,6.252,0,0,0,0-7.5a6.252,6.252,0,0,0,6.25,6.25,7.17,7.17,0,0,0,4.463-1.875h3.575A7.17,7.17,0,0,0,18.751-1.25,6.252,6.252,0,0,0,25-7.5,6.253,6.253,0,0,0,18.753-13.75ZM9.687-7.031a.469.469,0,0,1-.469.469H7.187v2.031a.469.469,0,0,1-.469.469H5.781a.469.469,0,0,1-.469-.469V-6.562H3.281a.469.469,0,0,1-.469-.469v-.937a.469.469,0,0,1,.469-.469H5.312v-2.031a.469.469,0,0,1,.469-.469h.937a.469.469,0,0,1,.469.469v2.031H9.219a.469.469,0,0,1,.469.469Zm8.437,2.969a1.563,1.563,0,0,1-1.562-1.562,1.563,1.563,0,0,1,1.562-1.562,1.563,1.563,0,0,1,1.562,1.562A1.563,1.563,0,0,1,18.125-4.062Zm2.5-3.75a1.563,1.563,0,0,1-1.562-1.562,1.563,1.563,0,0,1,1.562-1.562,1.563,1.563,0,0,1,1.562,1.562A1.563,1.563,0,0,1,20.625-7.812Z" transform="translate(0.001 13.75)" fill="#fff"/></svg>