<svg xmlns="http://www.w3.org/2000/svg" width="25" height="20" viewBox="0 0 25 20"><path d="M24.375-9.375h-2.5v-2.5a.627.627,0,0,0-.625-.625H20a.627.627,0,0,0-.625.625v2.5h-2.5a.627.627,0,0,0-.625.625V-7.5a.627.627,0,0,0,.625.625h2.5v2.5A.627.627,0,0,0,20-3.75h1.25a.627.627,0,0,0,.625-.625v-2.5h2.5A.627.627,0,0,0,25-7.5V-8.75A.627.627,0,0,0,24.375-9.375ZM8.75-7.5a5,5,0,0,0,5-5,5,5,0,0,0-5-5,5,5,0,0,0-5,5A5,5,0,0,0,8.75-7.5Zm3.5,1.25H11.6a6.807,6.807,0,0,1-2.848.625A6.821,6.821,0,0,1,5.9-6.25H5.25A5.251,5.251,0,0,0,0-1V.625A1.875,1.875,0,0,0,1.875,2.5h13.75A1.875,1.875,0,0,0,17.5.625V-1A5.251,5.251,0,0,0,12.25-6.25Z" transform="translate(0 17.5)" fill="#fff"/></svg>