<svg xmlns="http://www.w3.org/2000/svg" width="22.502" height="17.498" viewBox="0 0 22.502 17.498"><path d="M10.952-11.709,3.75-5.777v6.4a.625.625,0,0,0,.625.625l4.377-.011A.626.626,0,0,0,9.374.614V-3.125A.625.625,0,0,1,10-3.75h2.5a.625.625,0,0,1,.625.625V.611s0,0,0,0a.625.625,0,0,0,.625.625h0l4.376.012A.625.625,0,0,0,18.75.625V-5.781l-7.2-5.927a.554.554,0,0,0-.3-.105A.554.554,0,0,0,10.952-11.709ZM22.328-7.677l-3.266-2.692v-5.411a.469.469,0,0,0-.469-.469H16.406a.469.469,0,0,0-.469.469v2.836l-3.5-2.877a2.179,2.179,0,0,0-1.191-.427,2.179,2.179,0,0,0-1.191.427L.17-7.677A.532.532,0,0,0,0-7.316a.545.545,0,0,0,.108.3l1,1.211a.532.532,0,0,0,.362.171.545.545,0,0,0,.3-.107l9.188-7.568a.554.554,0,0,1,.3-.105.554.554,0,0,1,.3.105l9.189,7.568a.544.544,0,0,0,.3.108A.532.532,0,0,0,21.4-5.8l1-1.211a.545.545,0,0,0,.107-.3A.531.531,0,0,0,22.328-7.677Z" transform="translate(0.001 16.248)" fill="#fff"/></svg>