<svg xmlns="http://www.w3.org/2000/svg" width="20" height="17.5" viewBox="0 0 20 17.5"><path d="M1.25,0A1.249,1.249,0,0,0,2.5,1.25H8.75V-5H1.25Zm10,1.25H17.5A1.249,1.249,0,0,0,18.75,0V-5h-7.5Zm7.5-12.5H17.105a3.406,3.406,0,0,0,.395-1.562,3.443,3.443,0,0,0-3.437-3.437c-1.625,0-2.676.832-4.023,2.668-1.348-1.836-2.4-2.668-4.023-2.668a3.443,3.443,0,0,0-3.437,3.437,3.358,3.358,0,0,0,.395,1.562H1.25A1.249,1.249,0,0,0,0-10v3.125a.627.627,0,0,0,.625.625h18.75A.627.627,0,0,0,20-6.875V-10A1.249,1.249,0,0,0,18.75-11.25Zm-12.738,0a1.562,1.562,0,0,1-1.562-1.562,1.562,1.562,0,0,1,1.562-1.562c.777,0,1.352.129,3.363,3.125Zm8.051,0H10.7c2.008-2.988,2.566-3.125,3.363-3.125a1.562,1.562,0,0,1,1.562,1.562A1.562,1.562,0,0,1,14.062-11.25Z" transform="translate(0 16.25)" fill="#fff"/></svg>